<svg xmlns="http://www.w3.org/2000/svg" fill="none" height="88" viewBox="0 0 90 88" width="90"><path clip-rule="evenodd" d="m86.7785 31.373-36.1928 36.1928 20.337-49.3704c-1.1694-.6421-2.3652-1.2423-3.5852-1.7985l-20.4112 49.5505v-54.3611c-.6636-.0241-1.3303-.0363-1.9998-.0363-.6696 0-1.3364.0122-2.0002.0363v54.361l-20.411-49.5503c-1.22.5562-2.4158 1.1563-3.5852 1.7985l20.3369 49.3703-36.19264-36.1927c-.85257 1.0401-1.66712 2.1126-2.441547 3.2153l42.879287 42.8795 1.4142 1.4142 1.4143-1.4142 42.8795-42.8796c-.7744-1.1027-1.589-2.1751-2.4416-3.2153z" fill="#05070f" fill-rule="evenodd"/><circle cx="44.9263" cy="38.4781" r="14.2618" stroke="#05070f" stroke-width="4"/></svg>