<svg xmlns="http://www.w3.org/2000/svg" fill="none" height="32" viewBox="0 0 156 32" width="156"><g fill="#05070f"><path d="m66.407 26.4247c2.1863 0 4.0081-.9922 5.1675-2.6127v2.2489l4.5713-.0331v-17.85896l-4.6375.03307v9.82249c0 2.778-1.59 4.3324-3.7432 4.3324-2.4512 0-3.6438-1.5544-3.6438-4.0679v-10.08699h-4.6706v10.71539c0 4.6963 2.5506 7.5074 6.9563 7.5074z"/><path d="m79.2097 26.0609h4.6044v-9.8555c0-2.7781 1.6563-4.3655 3.8094-4.3655 2.4181 0 3.6438 1.5874 3.6438 4.134v10.087h4.6706v-10.7815c0-4.6632-2.6831-7.44128-6.9231-7.44128-2.2194 0-4.0745.99217-5.2338 2.61268v-2.24889h-4.5713z"/><path d="m98.9496 26.0609h4.5384v-13.758h4.306v-4.10099h-4.306v-.85988c0-2.71192.364-3.17493 3.544-3.17493h.762v-4.1671h-1.192c-5.754 0-7.6524 1.47492-7.6524 7.34203z"/><path d="m117.828 26.4247c5.4 0 9.474-4.1671 9.474-9.2933 0-5.1593-4.14-9.29328-9.474-9.29328-5.366 0-9.44 4.13398-9.44 9.29328 0 5.1262 4.074 9.2933 9.44 9.2933zm.034-4.3325c-2.75 0-4.903-2.2158-4.903-4.9939 0-2.778 2.153-4.9939 4.903-4.9939 2.716 0 4.902 2.2159 4.902 4.9939 0 2.7781-2.186 4.9939-4.902 4.9939z"/><path d="m129.546 26.0609h4.571v-25.142227h-4.571z"/><path d="m145.045 26.4247c2.319 0 4.34-1.0583 5.598-2.8111v2.4473h4.505v-25.175299h-4.505v9.598299c-1.225-1.65362-3.18-2.64578-5.532-2.64578-4.571 0-8.678 3.60488-8.678 9.29328s4.207 9.2933 8.612 9.2933zm.895-4.2994c-2.75 0-4.969-2.2158-4.969-5.027 0-2.8111 2.219-5.0269 4.969-5.0269 2.815 0 4.968 2.2489 4.968 5.0269 0 2.7781-2.153 5.027-4.968 5.027z"/></g><path d="m0 8.18752c0 13.15118 10.6783 23.81238 23.8506 23.81238s23.8505-10.6612 23.8505-23.81238z" fill="#f05"/></svg>