<svg xmlns="http://www.w3.org/2000/svg" fill="none" height="88" viewBox="0 0 88 88" width="88"><path d="m68.453 53.5827h11.6358l-4.657-22.121c-3.3695-16.0049-17.4894-27.4617-33.8451-27.4617-19.1019 0-34.58696 15.4851-34.58696 34.587v45.413h.03101.05806.05881.05956.06032.06107.0618.06256.06329.06403.06475.06549.06622.06695.06766.06839.0691.06983.07053.07124.07195.07265.07336.07406.07475.07544.07614.07682.07752.07818.07888.07956.08022.0809.08157.08223.08291.08355.08422.08488.08553.08617.0868.0875.0881.0888.0894.09.0907.0913.0919.0926.0931.0938.0944.095.0957.0962.0968.0975.098.0987.0992.0999.1004.101.1016.1022.1027.1033.1039.1045.1051.1056.1061.1068.1073.1078.1084.109.1095.11.1106.1111.1117.1122.1127.1132.1138.1143.1148.1154.1158.1164.1169.1174.1178.1184.1189.1194.1199.1204.1208.1214.1218.1223.1228.1233.1237.1242.1247.1251.1256.1261.1265.1269.1275.1278.1283.1288.1292.1296.1301.1305.1309.1314.1318.1322.1326.1331.1334.1339.1343.1347.135.1355.1359.1363.1367.137.1375.1378.1382.1386.139.1394.1397.1401.1404.1408.1412.1415.1419.1423.1426.1429.1433.1436.144.1443.1446.145.1453.1456.146.1462.1466.1469.1472.1475.1479.1481.1484.1488.149.1493.1497.1499.1502.1504.1508.151.1513.1516.1519.1521.1524.1526.1529.1532.1534.1537.1539.1542.1544.1546.1549.1551.1554.1556.1558.156.1563.1565.1567.1569.1571.1573.1576.1577.1579.1582.1583.1585.1587.1589.1591.1593.1595.1596.1598.16.1601.1603.1605.1606.1608.1609.1611.1613.1614.1615.1617.1618.162.1621.1622.1624.1624.1627.1627.1628.163.163.1632.1633.1634.1635.1636.1637.1638.1639.1639.1641.1641.1642.1643.1644.1644.1646.1645.1647.1647.1648.1648.1649.1649.165.165.1651.1651.1651.1652.1652.1653.1653.1653.1653.1653.1654.1653.1654.1654.1654.1654.1654.1654.1654.1654.1654.1654.1653.1654.1653.1653.1652.1653.1652.1652.1651.1651.1651.165.1649.165.1648.1648.1648.1647.1646.1646.1645.1644.1643.1643.1642.1641.164.164.1638.1638.1636.1636.1635.1633.1633.1631.1631.1629.1628.1627.1626.1624.1623.1622.1621.1619.1618.1616.1615.1614.1612.161.1609.1608.1606.1604.1602.1601.1599.1598.1596.1594.1592.159.1589.1586.1585.1583.1581.1578.1577.1575.1573.157.1569.1566.1564.1562.156.1557.1555.1553.1551.1548.1546.1543.1541.1538.1536.1534.1531.1528.1526.1523.152.1518.1515.1512.151.1507.1504.1501.1498.1495.1493.1489.1487.1483.1481.1477.1474.1471.1469.1464.1462.1459.1455.1452.1449.1445.1442.1439.1435.1432.1428.1425.1422.1417.1415.141.1408.1403.14.1396.1392.1389.1385.1381.1377.0181v-28.4173-2z" stroke="#05070f" stroke-width="4"/></svg>